<svg width="111" height="42" viewBox="0 0 111 42" fill="none" xmlns="http://www.w3.org/2000/svg">
<path d="M67.7387 26.4277C68.9028 23.8066 70.0903 22.4961 71.3012 22.4961C71.7856 22.4961 72.1352 22.6992 72.3501 23.1055C72.5649 23.5078 72.6723 24.1621 72.6723 25.0684L72.6782 25.7715C72.6782 26.9902 72.8579 27.6094 73.2173 27.6289C73.5063 27.6406 73.9614 27.293 74.5825 26.5859C75.2075 25.8789 75.8423 24.9902 76.4868 23.9199L76.9731 24.1895C76.3403 25.4434 75.6255 26.5039 74.8286 27.3711C74.0356 28.2383 73.3813 28.6719 72.8657 28.6719C72.3852 28.6719 72.0395 28.4473 71.8286 27.998C71.6176 27.5488 71.5122 26.8145 71.5122 25.7949V25.2734C71.5122 24.0938 71.3091 23.5039 70.9028 23.5039C70.3286 23.5039 69.5962 24.2949 68.7055 25.877C67.8071 27.4707 67.3579 28.416 67.3579 28.7129C67.3579 28.8105 67.395 28.9062 67.4692 29C67.2934 29.0977 67.0649 29.1465 66.7837 29.1465C66.436 29.1465 66.2622 28.9922 66.2622 28.6836C66.2622 28.4688 66.3852 27.8184 66.6313 26.7324C66.6391 26.6973 66.6899 26.4453 66.7837 25.9766L67.9848 19.9297C67.7231 20.0273 67.4594 20.0762 67.1938 20.0762C66.436 20.0762 66.0571 19.6289 66.0571 18.7344C66.4321 19.0156 66.8676 19.1562 67.3637 19.1562C68.063 19.1562 68.7348 19.0156 69.3794 18.7344L68.4184 23.5801C68.4067 23.6348 68.227 24.3613 67.8794 25.7598C67.852 25.877 67.8051 26.0996 67.7387 26.4277ZM80.3716 25.4199C79.8716 26.4551 79.2544 27.3359 78.52 28.0625C77.7895 28.7852 77.1528 29.1465 76.6098 29.1465C76.1958 29.1465 75.8637 28.9629 75.6137 28.5957C75.3676 28.2246 75.2446 27.7324 75.2446 27.1191C75.2446 25.8965 75.6137 24.8203 76.352 23.8906C77.0942 22.9609 77.9516 22.4961 78.9243 22.4961C79.5141 22.4961 80.1528 22.6797 80.8403 23.0469C80.9419 22.6836 81.3559 22.502 82.0825 22.502C82.1294 22.502 82.2055 22.5039 82.311 22.5078C82.0883 22.8477 81.9184 23.3125 81.8012 23.9023L81.7016 24.4004C81.5883 24.9551 81.5317 25.6035 81.5317 26.3457C81.5317 27.2012 81.7309 27.6289 82.1294 27.6289C82.5512 27.6289 83.1274 27.2773 83.8579 26.5742C84.5923 25.8672 85.313 24.9688 86.02 23.8789L86.477 24.1953C85.7544 25.4844 84.9282 26.5605 83.9985 27.4238C83.0688 28.2832 82.27 28.7129 81.602 28.7129C80.7583 28.7129 80.3364 28.0098 80.3364 26.6035C80.3364 26.3105 80.3481 25.916 80.3716 25.4199ZM80.6469 24.0195C79.8266 23.4844 79.145 23.2168 78.602 23.2168C78.0122 23.2168 77.5024 23.5762 77.0727 24.2949C76.643 25.0098 76.4282 25.8594 76.4282 26.8438C76.4282 27.6328 76.686 28.0273 77.2016 28.0273C77.7602 28.0273 78.8286 26.8008 80.4067 24.3477C80.4262 24.3164 80.5063 24.207 80.6469 24.0195ZM89.2954 26.6797C89.4008 26.8711 89.4536 27.0391 89.4536 27.1836C89.4536 27.5664 89.1294 27.9902 88.4809 28.4551C87.8364 28.916 87.2485 29.1465 86.7173 29.1465C86.2485 29.1465 85.8657 28.9375 85.5688 28.5195C85.2758 28.1016 85.1294 27.5625 85.1294 26.9023C85.1294 26.168 85.3227 25.123 85.7094 23.7676L85.979 22.7832H84.9887C84.5747 22.7832 84.2446 22.8418 83.9985 22.959C84.2251 22.5449 84.4126 22.2852 84.561 22.1797C84.7094 22.0742 84.9614 22.0215 85.3169 22.0215H86.2016L86.3188 21.6172C86.4985 21.0156 86.7133 20.6035 86.9633 20.3809C87.2133 20.1543 87.5883 20.041 88.0883 20.041C88.1469 20.041 88.2407 20.0449 88.3696 20.0527C88.0649 20.4434 87.7485 21.0996 87.4204 22.0215H90.5141C91.0571 22.0215 91.4712 21.9512 91.7563 21.8105C91.6587 22.2129 91.5278 22.4766 91.3637 22.6016C91.2036 22.7227 90.9028 22.7832 90.4614 22.7832H87.1684C87.1294 22.9121 87.1001 23.0078 87.0805 23.0703C86.6079 24.6797 86.3716 25.8945 86.3716 26.7148C86.3716 27.6211 86.6977 28.0742 87.3501 28.0742C87.686 28.0742 88.0512 27.9316 88.4458 27.6465C88.8442 27.3613 89.1274 27.0391 89.2954 26.6797ZM94.5688 26.6797C94.6743 26.8711 94.727 27.0391 94.727 27.1836C94.727 27.5664 94.4028 27.9902 93.7544 28.4551C93.1098 28.916 92.5219 29.1465 91.9907 29.1465C91.5219 29.1465 91.1391 28.9375 90.8423 28.5195C90.5493 28.1016 90.4028 27.5625 90.4028 26.9023C90.4028 26.168 90.5962 25.123 90.9829 23.7676L91.2524 22.7832H90.2622C89.8481 22.7832 89.518 22.8418 89.2719 22.959C89.4985 22.5449 89.686 22.2852 89.8344 22.1797C89.9829 22.0742 90.2348 22.0215 90.5903 22.0215H91.4751L91.5923 21.6172C91.7719 21.0156 91.9868 20.6035 92.2368 20.3809C92.4868 20.1543 92.8618 20.041 93.3618 20.041C93.4204 20.041 93.5141 20.0449 93.643 20.0527C93.3383 20.4434 93.0219 21.0996 92.6938 22.0215H95.7876C96.3305 22.0215 96.7446 21.9512 97.0298 21.8105C96.9321 22.2129 96.8012 22.4766 96.6372 22.6016C96.477 22.7227 96.1762 22.7832 95.7348 22.7832H92.4419C92.4028 22.9121 92.3735 23.0078 92.354 23.0703C91.8813 24.6797 91.645 25.8945 91.645 26.7148C91.645 27.6211 91.9712 28.0742 92.6235 28.0742C92.9594 28.0742 93.3247 27.9316 93.7192 27.6465C94.1176 27.3613 94.4008 27.0391 94.5688 26.6797ZM96.5844 26.5625C96.5844 27.707 97.0688 28.2793 98.0376 28.2793C98.8774 28.2793 99.8032 27.8789 100.815 27.0781C101.827 26.2773 102.739 25.2227 103.551 23.9141L104.049 24.1895C103.284 25.6191 102.288 26.8027 101.061 27.7402C99.8383 28.6777 98.6782 29.1465 97.5805 29.1465C96.8774 29.1465 96.3208 28.9199 95.9106 28.4668C95.5044 28.0137 95.3012 27.3945 95.3012 26.6094C95.3012 25.4766 95.6704 24.5078 96.4087 23.7031C97.1508 22.8984 98.0434 22.4961 99.0864 22.4961C99.5903 22.4961 99.9926 22.623 100.293 22.877C100.598 23.1309 100.75 23.4707 100.75 23.8965C100.75 24.5957 100.329 25.2148 99.4848 25.7539C98.645 26.293 97.6782 26.5625 96.5844 26.5625ZM96.6313 26C97.4477 25.957 98.1469 25.7227 98.729 25.2969C99.3149 24.8711 99.6079 24.3789 99.6079 23.8203C99.6079 23.3203 99.3852 23.0703 98.9399 23.0703C98.4087 23.0703 97.9184 23.3555 97.4692 23.9258C97.02 24.4961 96.7407 25.1875 96.6313 26ZM103.844 28.959C103.579 29.084 103.366 29.1465 103.206 29.1465C102.807 29.1465 102.608 28.9707 102.608 28.6191C102.608 28.4395 102.678 27.9922 102.819 27.2773L103.112 25.8184C103.291 24.9512 103.381 24.3086 103.381 23.8906C103.381 23.6641 103.317 23.4746 103.188 23.3223C103.598 23.1816 103.932 23.1113 104.19 23.1113C104.463 23.1113 104.6 23.2852 104.6 23.6328C104.6 23.8477 104.502 24.4121 104.307 25.3262L103.973 27.0312C104.711 25.5977 105.454 24.4844 106.2 23.6914C106.95 22.8945 107.629 22.4961 108.239 22.4961C108.454 22.4961 108.639 22.5586 108.795 22.6836C108.952 22.8047 109.03 22.9531 109.03 23.1289C109.03 23.4023 108.733 23.7656 108.139 24.2188C107.991 23.9102 107.78 23.7559 107.506 23.7559C107.01 23.7559 106.377 24.2832 105.608 25.3379C105.131 25.9941 104.717 26.6719 104.366 27.3711C104.014 28.0664 103.838 28.5625 103.838 28.8594L103.844 28.959Z" fill="#733148"/>
<path d="M63.4296 26.1719C63.5781 26.5234 63.6523 26.8008 63.6523 27.0039C63.6523 28.0195 62.7812 29.0117 61.039 29.9805C59.3046 30.9492 57.5234 31.4336 55.6953 31.4336C53.6953 31.4336 52.1132 30.8516 50.9492 29.6875C49.7929 28.5234 49.2148 26.9297 49.2148 24.9062C49.2148 21.7109 50.2617 18.9648 52.3554 16.668C54.4492 14.3711 56.9531 13.2227 59.8671 13.2227C61.0546 13.2227 62.0546 13.4336 62.8671 13.8555C63.6796 14.2773 64.0859 14.793 64.0859 15.4023C64.0859 15.9492 63.7343 16.5508 63.0312 17.207C62.0859 15.3164 60.746 14.3711 59.0117 14.3711C57.1132 14.3711 55.457 15.3594 54.0429 17.3359C52.6288 19.3047 51.9218 21.6055 51.9218 24.2383C51.9218 25.918 52.3437 27.25 53.1874 28.2344C54.039 29.2109 55.1874 29.6992 56.6328 29.6992C59.1015 29.6992 61.3671 28.5234 63.4296 26.1719Z" fill="#733148"/>
<path d="M34.754 36.0872L29.9657 31.6007L24.1165 31.5601C22.074 31.5459 20.4304 30.0059 20.4455 28.1205L20.4919 22.3317C20.507 20.4462 22.1751 18.9293 24.2177 18.9435L35.313 19.0206C37.3556 19.0347 38.9992 20.5747 38.9841 22.4601L38.9376 28.2489C38.9225 30.1344 37.2544 31.6514 35.2118 31.6372L34.7897 31.6342L34.754 36.0872Z" fill="#733148"/>
<path d="M35.3199 18.1671L35.3815 10.4858C35.3966 8.60033 33.753 7.06037 31.7104 7.04618L9.51984 6.89204C7.47725 6.87785 5.80915 8.39481 5.79403 10.2803L5.6869 23.639C5.67178 25.5245 7.31537 27.0644 9.35795 27.0786L12.2524 27.0987L12.1952 34.2234L19.9708 27.1523L20.4532 27.1557M29.9657 31.6007L34.754 36.0872L34.7897 31.6342L35.2118 31.6372C37.2544 31.6514 38.9225 30.1344 38.9376 28.2489L38.9841 22.4601C38.9992 20.5747 37.3556 19.0347 35.313 19.0206L24.2177 18.9435C22.1751 18.9293 20.507 20.4462 20.4919 22.3317L20.4455 28.1205C20.4304 30.0059 22.074 31.5459 24.1165 31.5601L29.9657 31.6007Z" stroke="#733148" stroke-width="2" stroke-linecap="round" stroke-linejoin="round"/>
</svg>
