<svg width="458" height="151" viewBox="0 0 458 151" fill="none" xmlns="http://www.w3.org/2000/svg">
<rect width="458" height="151" fill="white"/>
<rect x="15" y="26" width="100" height="100" fill="#0D090A"/>
<path d="M42.002 20L43.2617 17.3281H41.8438L41.9199 16.748H43.5312L44.5566 14.5801H42.3887L42.4648 14H44.8262L46.0859 11.3281H46.7422L45.4824 14H47.1172L48.377 11.3281H49.0332L47.7734 14H49.1914L49.1152 14.5801H47.498L46.4785 16.748H48.6406L48.5645 17.3281H46.209L44.9434 20H44.293L45.5527 17.3281H43.9121L42.6523 20H42.002ZM44.1875 16.748H45.8223L46.8477 14.5801H45.207L44.1875 16.748ZM51.9746 20.2168C51.2715 20.2168 50.6992 19.9492 50.2578 19.4141C49.8203 18.8789 49.6016 18.1816 49.6016 17.3223C49.6016 15.6621 50.002 14.2129 50.8027 12.9746C51.6074 11.7324 52.5469 11.1113 53.6211 11.1113C54.3477 11.1113 54.9316 11.377 55.373 11.9082C55.8145 12.4355 56.0352 13.1348 56.0352 14.0059C56.0352 15.6855 55.6328 17.1406 54.8281 18.3711C54.0234 19.6016 53.0723 20.2168 51.9746 20.2168ZM50.7852 17.6914C50.7852 18.4102 50.8945 18.9512 51.1133 19.3145C51.332 19.6738 51.6582 19.8535 52.0918 19.8535C52.8184 19.8535 53.459 19.2344 54.0137 17.9961C54.5684 16.7539 54.8457 15.3223 54.8457 13.7012C54.8457 12.9551 54.7383 12.3965 54.5234 12.0254C54.3125 11.6543 53.9922 11.4688 53.5625 11.4688C52.8164 11.4688 52.166 12.0898 51.6113 13.332C51.0605 14.5703 50.7852 16.0234 50.7852 17.6914ZM55.8828 20L55.9531 19.6367L56.0645 19.6309C56.5527 19.5996 56.8477 19.5332 56.9492 19.4316C57.0547 19.3301 57.1621 19.0137 57.2715 18.4824L58.3906 12.8457C58.4531 12.5215 58.4844 12.2422 58.4844 12.0078C58.4844 11.8828 58.4473 11.8066 58.373 11.7793C58.3027 11.752 58.0605 11.7246 57.6465 11.6973L57.5352 11.6855L57.6113 11.3281H60.3008L61.6484 11.3105H61.8711C62.9844 11.3105 63.8184 11.5645 64.373 12.0723C64.9316 12.5762 65.2109 13.334 65.2109 14.3457C65.2109 15.9824 64.7148 17.334 63.7227 18.4004C62.7305 19.4668 61.4727 20 59.9492 20H55.8828ZM59.8438 11.7207L58.4961 18.4824C58.4219 18.9043 58.3887 19.1328 58.3965 19.168C58.4512 19.4609 58.7988 19.6074 59.4395 19.6074C60.7754 19.6074 61.8555 19.123 62.6797 18.1543C63.5078 17.1855 63.9219 15.9199 63.9219 14.3574C63.9219 13.3809 63.668 12.6973 63.1602 12.3066C62.6562 11.916 61.7695 11.7207 60.5 11.7207H59.8438ZM68.5215 20.2168C67.8184 20.2168 67.2461 19.9492 66.8047 19.4141C66.3672 18.8789 66.1484 18.1816 66.1484 17.3223C66.1484 15.6621 66.5488 14.2129 67.3496 12.9746C68.1543 11.7324 69.0938 11.1113 70.168 11.1113C70.8945 11.1113 71.4785 11.377 71.9199 11.9082C72.3613 12.4355 72.582 13.1348 72.582 14.0059C72.582 15.6855 72.1797 17.1406 71.375 18.3711C70.5703 19.6016 69.6191 20.2168 68.5215 20.2168ZM67.332 17.6914C67.332 18.4102 67.4414 18.9512 67.6602 19.3145C67.8789 19.6738 68.2051 19.8535 68.6387 19.8535C69.3652 19.8535 70.0059 19.2344 70.5605 17.9961C71.1152 16.7539 71.3926 15.3223 71.3926 13.7012C71.3926 12.9551 71.2852 12.3965 71.0703 12.0254C70.8594 11.6543 70.5391 11.4688 70.1094 11.4688C69.3633 11.4688 68.7129 12.0898 68.1582 13.332C67.6074 14.5703 67.332 16.0234 67.332 17.6914ZM78.3066 16.1387C77.584 16.6895 76.877 16.9648 76.1855 16.9648C75.5371 16.9648 75.0098 16.7695 74.6035 16.3789C74.2012 15.9883 74 15.4805 74 14.8555C74 13.8711 74.3477 13.002 75.043 12.248C75.7383 11.4902 76.5391 11.1113 77.4453 11.1113C78.2148 11.1113 78.8145 11.377 79.2441 11.9082C79.6738 12.4355 79.8887 13.1719 79.8887 14.1172C79.8887 14.9258 79.7383 15.7637 79.4375 16.6309C79.1367 17.4941 78.7441 18.2188 78.2598 18.8047C77.4746 19.7461 76.5332 20.2168 75.4355 20.2168C74.752 20.2168 74.0762 20.0664 73.4082 19.7656L73.6836 18.3711H74.2637L74.2402 18.5176C74.1895 18.9004 74.1641 19.123 74.1641 19.1855C74.1641 19.3379 74.3047 19.4863 74.5859 19.6309C74.8711 19.7754 75.1641 19.8477 75.4648 19.8477C76.1172 19.8477 76.6914 19.5234 77.1875 18.875C77.6875 18.2227 78.0605 17.3105 78.3066 16.1387ZM78.7344 13.6777C78.7344 12.9512 78.6133 12.4082 78.3711 12.0488C78.1328 11.6855 77.7734 11.5039 77.293 11.5039C76.7305 11.5039 76.2324 11.8418 75.7988 12.5176C75.3691 13.1895 75.1543 13.9629 75.1543 14.8379C75.1543 15.3887 75.2676 15.8027 75.4941 16.0801C75.7207 16.3574 76.0605 16.4961 76.5137 16.4961C77.2012 16.4961 77.7422 16.2461 78.1367 15.7461C78.5352 15.2422 78.7344 14.5527 78.7344 13.6777ZM83.123 20.2168C82.4199 20.2168 81.8477 19.9492 81.4062 19.4141C80.9688 18.8789 80.75 18.1816 80.75 17.3223C80.75 15.6621 81.1504 14.2129 81.9512 12.9746C82.7559 11.7324 83.6953 11.1113 84.7695 11.1113C85.4961 11.1113 86.0801 11.377 86.5215 11.9082C86.9629 12.4355 87.1836 13.1348 87.1836 14.0059C87.1836 15.6855 86.7812 17.1406 85.9766 18.3711C85.1719 19.6016 84.2207 20.2168 83.123 20.2168ZM81.9336 17.6914C81.9336 18.4102 82.043 18.9512 82.2617 19.3145C82.4805 19.6738 82.8066 19.8535 83.2402 19.8535C83.9668 19.8535 84.6074 19.2344 85.1621 17.9961C85.7168 16.7539 85.9941 15.3223 85.9941 13.7012C85.9941 12.9551 85.8867 12.3965 85.6719 12.0254C85.4609 11.6543 85.1406 11.4688 84.7109 11.4688C83.9648 11.4688 83.3145 12.0898 82.7598 13.332C82.209 14.5703 81.9336 16.0234 81.9336 17.6914ZM86.75 20L86.8203 19.6367L86.9316 19.6309C87.2988 19.6113 87.5254 19.5664 87.6113 19.4961C87.7012 19.4219 87.9336 19.0918 88.3086 18.5059L92.8379 11.1816H93.2656L94.6484 18.4004C94.75 18.9316 94.8516 19.2656 94.9531 19.4023C95.0586 19.5391 95.2637 19.6152 95.5684 19.6309L95.7148 19.6367L95.6387 20H92.3867L92.4629 19.6367H92.6445C93.2109 19.6367 93.4941 19.543 93.4941 19.3555C93.4941 19.1562 93.4609 18.877 93.3945 18.5176L93.1719 17.3281H89.5625L88.8301 18.4941C88.5293 18.9668 88.3789 19.2715 88.3789 19.4082C88.3789 19.5605 88.6191 19.6367 89.0996 19.6367H89.2461L89.1699 20H86.75ZM89.7969 16.8184H93.0605L92.3105 12.7402L89.7969 16.8184Z" fill="black"/>
<path d="M152.002 22L153.262 19.3281H151.844L151.92 18.748H153.531L154.557 16.5801H152.389L152.465 16H154.826L156.086 13.3281H156.742L155.482 16H157.117L158.377 13.3281H159.033L157.773 16H159.191L159.115 16.5801H157.498L156.479 18.748H158.641L158.564 19.3281H156.209L154.943 22H154.293L155.553 19.3281H153.912L152.652 22H152.002ZM154.188 18.748H155.822L156.848 16.5801H155.207L154.188 18.748ZM160.135 22C160.244 21.3086 160.449 20.7344 160.75 20.2773C161.051 19.8203 161.838 18.8809 163.111 17.459L165.848 14.4121H161.078L161.295 13.3281H166.785L166.621 14.1543C165.113 15.6738 163.908 17.123 163.006 18.502C162.107 19.8809 161.605 21.0469 161.5 22H160.135ZM166.867 21.9707L167.166 20.4824H167.74L167.729 20.5879C167.709 20.7324 167.686 20.8906 167.658 21.0625C167.65 21.1289 167.646 21.1875 167.646 21.2383C167.646 21.4141 167.766 21.5625 168.004 21.6836C168.246 21.8047 168.545 21.8652 168.9 21.8652C169.537 21.8652 170.08 21.6035 170.529 21.0801C170.979 20.5527 171.203 19.918 171.203 19.1758C171.203 18.5977 171.012 18.166 170.629 17.8809C170.246 17.5918 169.67 17.4473 168.9 17.4473H168.525L168.596 17.084H169.123C169.975 17.084 170.643 16.8867 171.127 16.4922C171.615 16.0938 171.859 15.5469 171.859 14.8516C171.859 14.4336 171.729 14.0996 171.467 13.8496C171.205 13.5957 170.855 13.4688 170.418 13.4688C169.68 13.4688 169.256 13.7148 169.146 14.207C169.092 14.4492 169.057 14.5957 169.041 14.6465L169.012 14.7578H168.438L168.713 13.3691C169.357 13.1973 169.963 13.1113 170.529 13.1113C171.357 13.1113 171.977 13.2539 172.387 13.5391C172.801 13.8203 173.008 14.2461 173.008 14.8164C173.008 15.3672 172.783 15.8672 172.334 16.3164C171.885 16.7656 171.287 17.0898 170.541 17.2891C171.17 17.3867 171.641 17.5859 171.953 17.8867C172.27 18.1875 172.428 18.5918 172.428 19.0996C172.428 20.002 172.086 20.748 171.402 21.3379C170.723 21.9238 169.859 22.2168 168.812 22.2168C168.5 22.2168 168.182 22.1953 167.857 22.1523C167.533 22.1133 167.203 22.0527 166.867 21.9707ZM174.168 21.9707L174.467 20.4824H175.041L175.029 20.5879C175.01 20.7324 174.986 20.8906 174.959 21.0625C174.951 21.1289 174.947 21.1875 174.947 21.2383C174.947 21.4141 175.066 21.5625 175.305 21.6836C175.547 21.8047 175.846 21.8652 176.201 21.8652C176.838 21.8652 177.381 21.6035 177.83 21.0801C178.279 20.5527 178.504 19.918 178.504 19.1758C178.504 18.5977 178.312 18.166 177.93 17.8809C177.547 17.5918 176.971 17.4473 176.201 17.4473H175.826L175.896 17.084H176.424C177.275 17.084 177.943 16.8867 178.428 16.4922C178.916 16.0938 179.16 15.5469 179.16 14.8516C179.16 14.4336 179.029 14.0996 178.768 13.8496C178.506 13.5957 178.156 13.4688 177.719 13.4688C176.98 13.4688 176.557 13.7148 176.447 14.207C176.393 14.4492 176.357 14.5957 176.342 14.6465L176.312 14.7578H175.738L176.014 13.3691C176.658 13.1973 177.264 13.1113 177.83 13.1113C178.658 13.1113 179.277 13.2539 179.688 13.5391C180.102 13.8203 180.309 14.2461 180.309 14.8164C180.309 15.3672 180.084 15.8672 179.635 16.3164C179.186 16.7656 178.588 17.0898 177.842 17.2891C178.471 17.3867 178.941 17.5859 179.254 17.8867C179.57 18.1875 179.729 18.5918 179.729 19.0996C179.729 20.002 179.387 20.748 178.703 21.3379C178.023 21.9238 177.16 22.2168 176.113 22.2168C175.801 22.2168 175.482 22.1953 175.158 22.1523C174.834 22.1133 174.504 22.0527 174.168 21.9707ZM186.174 13.252L184.738 20.4824C184.672 20.8066 184.639 21.0859 184.639 21.3203C184.639 21.4375 184.686 21.5137 184.779 21.5488C184.877 21.584 185.111 21.6113 185.482 21.6309L186.098 21.6367L186.027 22H181.615L181.686 21.6367L182.377 21.6309C182.861 21.6309 183.152 21.584 183.25 21.4902C183.352 21.3965 183.461 21.0605 183.578 20.4824L184.68 14.9629L184.809 14.2129C184.809 14.0488 184.686 13.9668 184.439 13.9668C184.369 13.9668 184.146 14.002 183.771 14.0723L183.168 14.1777L183.244 13.8145L186.174 13.252ZM192.215 19.5801H188.312L188.441 18.9297L193.914 13.2168H194.494L193.398 18.7129H194.629L194.383 19.5801H193.229L193.047 20.4824C192.984 20.8027 192.953 21.082 192.953 21.3203C192.953 21.4453 192.99 21.5215 193.064 21.5488C193.139 21.5762 193.383 21.6035 193.797 21.6309L193.902 21.6367L193.832 22H190.574L190.65 21.6367L190.832 21.6309C191.309 21.6035 191.602 21.5371 191.711 21.4316C191.82 21.3262 191.928 21.0098 192.033 20.4824L192.215 19.5801ZM189.162 18.7129H192.391L193.234 14.4414L189.162 18.7129ZM198.42 17.3477C197.783 16.9102 197.465 16.3633 197.465 15.707C197.465 14.9883 197.746 14.375 198.309 13.8672C198.875 13.3594 199.559 13.1055 200.359 13.1055C201.023 13.1055 201.557 13.252 201.959 13.5449C202.361 13.8379 202.562 14.2266 202.562 14.7109C202.562 15.6523 201.834 16.4883 200.377 17.2188C201.471 17.875 202.018 18.6328 202.018 19.4922C202.018 20.2422 201.693 20.8848 201.045 21.4199C200.4 21.9512 199.621 22.2168 198.707 22.2168C197.922 22.2168 197.307 22.041 196.861 21.6895C196.42 21.334 196.199 20.8398 196.199 20.207C196.199 19.1211 196.939 18.168 198.42 17.3477ZM198.889 17.6875L198.707 17.5879C197.781 18.2168 197.318 19.0586 197.318 20.1133C197.318 20.6914 197.443 21.127 197.693 21.4199C197.943 21.709 198.316 21.8535 198.812 21.8535C199.359 21.8535 199.826 21.6582 200.213 21.2676C200.6 20.877 200.793 20.4043 200.793 19.8496C200.793 19.4473 200.654 19.0898 200.377 18.7773C200.104 18.4648 199.607 18.1016 198.889 17.6875ZM200.037 16.9844C201.045 16.5195 201.549 15.8145 201.549 14.8691C201.549 14.4004 201.438 14.0508 201.215 13.8203C200.996 13.5859 200.664 13.4688 200.219 13.4688C199.762 13.4688 199.375 13.6387 199.059 13.9785C198.742 14.3184 198.584 14.7324 198.584 15.2207C198.584 15.8301 199.068 16.418 200.037 16.9844Z" fill="black"/>
<path d="M260.002 22L261.262 19.3281H259.844L259.92 18.748H261.531L262.557 16.5801H260.389L260.465 16H262.826L264.086 13.3281H264.742L263.482 16H265.117L266.377 13.3281H267.033L265.773 16H267.191L267.115 16.5801H265.498L264.479 18.748H266.641L266.564 19.3281H264.209L262.943 22H262.293L263.553 19.3281H261.912L260.652 22H260.002ZM262.188 18.748H263.822L264.848 16.5801H263.207L262.188 18.748ZM268.135 22C268.244 21.3086 268.449 20.7344 268.75 20.2773C269.051 19.8203 269.838 18.8809 271.111 17.459L273.848 14.4121H269.078L269.295 13.3281H274.785L274.621 14.1543C273.113 15.6738 271.908 17.123 271.006 18.502C270.107 19.8809 269.605 21.0469 269.5 22H268.135ZM277.217 17.3477C276.58 16.9102 276.262 16.3633 276.262 15.707C276.262 14.9883 276.543 14.375 277.105 13.8672C277.672 13.3594 278.355 13.1055 279.156 13.1055C279.82 13.1055 280.354 13.252 280.756 13.5449C281.158 13.8379 281.359 14.2266 281.359 14.7109C281.359 15.6523 280.631 16.4883 279.174 17.2188C280.268 17.875 280.814 18.6328 280.814 19.4922C280.814 20.2422 280.49 20.8848 279.842 21.4199C279.197 21.9512 278.418 22.2168 277.504 22.2168C276.719 22.2168 276.104 22.041 275.658 21.6895C275.217 21.334 274.996 20.8398 274.996 20.207C274.996 19.1211 275.736 18.168 277.217 17.3477ZM277.686 17.6875L277.504 17.5879C276.578 18.2168 276.115 19.0586 276.115 20.1133C276.115 20.6914 276.24 21.127 276.49 21.4199C276.74 21.709 277.113 21.8535 277.609 21.8535C278.156 21.8535 278.623 21.6582 279.01 21.2676C279.396 20.877 279.59 20.4043 279.59 19.8496C279.59 19.4473 279.451 19.0898 279.174 18.7773C278.9 18.4648 278.404 18.1016 277.686 17.6875ZM278.834 16.9844C279.842 16.5195 280.346 15.8145 280.346 14.8691C280.346 14.4004 280.234 14.0508 280.012 13.8203C279.793 13.5859 279.461 13.4688 279.016 13.4688C278.559 13.4688 278.172 13.6387 277.855 13.9785C277.539 14.3184 277.381 14.7324 277.381 15.2207C277.381 15.8301 277.865 16.418 278.834 16.9844ZM282.314 21.9648L282.613 20.4824H283.188L283.176 20.5879C283.125 20.9746 283.1 21.1855 283.1 21.2207C283.1 21.3926 283.215 21.5391 283.445 21.6602C283.676 21.7773 283.955 21.8359 284.283 21.8359C284.92 21.8359 285.461 21.5586 285.906 21.0039C286.352 20.4492 286.574 19.7754 286.574 18.9824C286.574 18.3184 286.393 17.8223 286.029 17.4941C285.666 17.1621 285.119 16.9961 284.389 16.9961C284.119 16.9961 283.797 17.0234 283.422 17.0781L284.172 13.3281H288.766L288.566 14.3359H284.33L283.867 16.6562C284.18 16.625 284.441 16.6094 284.652 16.6094C285.629 16.6094 286.396 16.8164 286.955 17.2305C287.518 17.6445 287.799 18.2129 287.799 18.9355C287.799 19.9082 287.453 20.6992 286.762 21.3086C286.07 21.9141 285.17 22.2168 284.061 22.2168C283.775 22.2168 283.486 22.1953 283.193 22.1523C282.904 22.1094 282.611 22.0469 282.314 21.9648ZM294.361 18.1387C293.639 18.6895 292.932 18.9648 292.24 18.9648C291.592 18.9648 291.064 18.7695 290.658 18.3789C290.256 17.9883 290.055 17.4805 290.055 16.8555C290.055 15.8711 290.402 15.002 291.098 14.248C291.793 13.4902 292.594 13.1113 293.5 13.1113C294.27 13.1113 294.869 13.377 295.299 13.9082C295.729 14.4355 295.943 15.1719 295.943 16.1172C295.943 16.9258 295.793 17.7637 295.492 18.6309C295.191 19.4941 294.799 20.2188 294.314 20.8047C293.529 21.7461 292.588 22.2168 291.49 22.2168C290.807 22.2168 290.131 22.0664 289.463 21.7656L289.738 20.3711H290.318L290.295 20.5176C290.244 20.9004 290.219 21.123 290.219 21.1855C290.219 21.3379 290.359 21.4863 290.641 21.6309C290.926 21.7754 291.219 21.8477 291.52 21.8477C292.172 21.8477 292.746 21.5234 293.242 20.875C293.742 20.2227 294.115 19.3105 294.361 18.1387ZM294.789 15.6777C294.789 14.9512 294.668 14.4082 294.426 14.0488C294.188 13.6855 293.828 13.5039 293.348 13.5039C292.785 13.5039 292.287 13.8418 291.854 14.5176C291.424 15.1895 291.209 15.9629 291.209 16.8379C291.209 17.3887 291.322 17.8027 291.549 18.0801C291.775 18.3574 292.115 18.4961 292.568 18.4961C293.256 18.4961 293.797 18.2461 294.191 17.7461C294.59 17.2422 294.789 16.5527 294.789 15.6777ZM298.492 17.1895C299.215 16.6387 299.92 16.3633 300.607 16.3633C301.256 16.3633 301.781 16.5586 302.184 16.9492C302.59 17.3359 302.793 17.8438 302.793 18.4727C302.793 19.457 302.445 20.3281 301.75 21.0859C301.055 21.8398 300.254 22.2168 299.348 22.2168C298.578 22.2168 297.979 21.9531 297.549 21.4258C297.119 20.8945 296.904 20.1562 296.904 19.2109C296.904 18.4023 297.055 17.5664 297.355 16.7031C297.656 15.8359 298.051 15.1094 298.539 14.5234C299.32 13.582 300.262 13.1113 301.363 13.1113C302.043 13.1113 302.717 13.2598 303.385 13.5566L303.109 14.9512H302.529L302.553 14.8047C302.604 14.4258 302.629 14.2051 302.629 14.1426C302.629 13.9746 302.488 13.8223 302.207 13.6855C301.93 13.5449 301.623 13.4746 301.287 13.4746C300.658 13.4746 300.096 13.8047 299.6 14.4648C299.104 15.1211 298.734 16.0293 298.492 17.1895ZM298.059 19.6445C298.059 20.3711 298.18 20.916 298.422 21.2793C298.664 21.6426 299.025 21.8242 299.506 21.8242C300.064 21.8242 300.559 21.4883 300.988 20.8164C301.422 20.1406 301.639 19.3633 301.639 18.4844C301.639 17.9336 301.525 17.5215 301.299 17.248C301.076 16.9707 300.738 16.832 300.285 16.832C299.594 16.832 299.049 17.084 298.65 17.5879C298.256 18.0879 298.059 18.7734 298.059 19.6445ZM307.516 19.5801H303.613L303.742 18.9297L309.215 13.2168H309.795L308.699 18.7129H309.93L309.684 19.5801H308.529L308.348 20.4824C308.285 20.8027 308.254 21.082 308.254 21.3203C308.254 21.4453 308.291 21.5215 308.365 21.5488C308.439 21.5762 308.684 21.6035 309.098 21.6309L309.203 21.6367L309.133 22H305.875L305.951 21.6367L306.133 21.6309C306.609 21.6035 306.902 21.5371 307.012 21.4316C307.121 21.3262 307.229 21.0098 307.334 20.4824L307.516 19.5801ZM304.463 18.7129H307.691L308.535 14.4414L304.463 18.7129Z" fill="black"/>
<path d="M366.002 22L367.262 19.3281H365.844L365.92 18.748H367.531L368.557 16.5801H366.389L366.465 16H368.826L370.086 13.3281H370.742L369.482 16H371.117L372.377 13.3281H373.033L371.773 16H373.191L373.115 16.5801H371.498L370.479 18.748H372.641L372.564 19.3281H370.209L368.943 22H368.293L369.553 19.3281H367.912L366.652 22H366.002ZM368.188 18.748H369.822L370.848 16.5801H369.207L368.188 18.748ZM378.834 22H372.582L372.652 21.6367L372.764 21.6309C373.252 21.5996 373.547 21.5332 373.648 21.4316C373.754 21.3301 373.861 21.0137 373.971 20.4824L375.09 14.8457C375.152 14.5215 375.184 14.2422 375.184 14.0078C375.184 13.8828 375.146 13.8066 375.072 13.7793C375.002 13.752 374.76 13.7246 374.346 13.6973L374.234 13.6855L374.311 13.3281H380.234L379.936 14.8457H379.279L379.297 14.7344L379.414 14.084C379.414 13.8926 379.084 13.7969 378.424 13.7969H376.525L375.84 17.2656H377.428C377.76 17.2656 377.973 17.2461 378.066 17.207C378.164 17.168 378.23 17.0723 378.266 16.9199C378.285 16.8457 378.309 16.7559 378.336 16.6504L378.365 16.5449H378.834L378.453 18.4551H377.984L378.002 18.3496C378.025 18.166 378.037 18.0371 378.037 17.9629C378.037 17.8105 377.803 17.7344 377.334 17.7344H375.746L375.195 20.4824C375.152 20.7012 375.131 20.9141 375.131 21.1211C375.131 21.2812 375.182 21.3848 375.283 21.4316C375.389 21.4746 375.625 21.4961 375.992 21.4961H376.918C377.617 21.4961 378.018 21.4629 378.119 21.3965C378.225 21.3301 378.342 21.0371 378.471 20.5176L378.5 20.4121H379.15L378.834 22ZM380.533 21.9648L380.832 20.4824H381.406L381.395 20.5879C381.344 20.9746 381.318 21.1855 381.318 21.2207C381.318 21.3926 381.434 21.5391 381.664 21.6602C381.895 21.7773 382.174 21.8359 382.502 21.8359C383.139 21.8359 383.68 21.5586 384.125 21.0039C384.57 20.4492 384.793 19.7754 384.793 18.9824C384.793 18.3184 384.611 17.8223 384.248 17.4941C383.885 17.1621 383.338 16.9961 382.607 16.9961C382.338 16.9961 382.016 17.0234 381.641 17.0781L382.391 13.3281H386.984L386.785 14.3359H382.549L382.086 16.6562C382.398 16.625 382.66 16.6094 382.871 16.6094C383.848 16.6094 384.615 16.8164 385.174 17.2305C385.736 17.6445 386.018 18.2129 386.018 18.9355C386.018 19.9082 385.672 20.6992 384.98 21.3086C384.289 21.9141 383.389 22.2168 382.279 22.2168C381.994 22.2168 381.705 22.1953 381.412 22.1523C381.123 22.1094 380.83 22.0469 380.533 21.9648ZM386.703 22L386.773 21.6367L386.885 21.6309C387.373 21.5996 387.668 21.5332 387.77 21.4316C387.875 21.3301 387.982 21.0137 388.092 20.4824L389.211 14.8457C389.273 14.5215 389.305 14.2422 389.305 14.0078C389.305 13.8828 389.268 13.8066 389.193 13.7793C389.123 13.752 388.881 13.7246 388.467 13.6973L388.355 13.6855L388.432 13.3281H391.121L392.469 13.3105H392.691C393.805 13.3105 394.639 13.5645 395.193 14.0723C395.752 14.5762 396.031 15.334 396.031 16.3457C396.031 17.9824 395.535 19.334 394.543 20.4004C393.551 21.4668 392.293 22 390.77 22H386.703ZM390.664 13.7207L389.316 20.4824C389.242 20.9043 389.209 21.1328 389.217 21.168C389.271 21.4609 389.619 21.6074 390.26 21.6074C391.596 21.6074 392.676 21.123 393.5 20.1543C394.328 19.1855 394.742 17.9199 394.742 16.3574C394.742 15.3809 394.488 14.6973 393.98 14.3066C393.477 13.916 392.59 13.7207 391.32 13.7207H390.664ZM403.443 21.4727C402.244 21.9688 401.133 22.2168 400.109 22.2168C399.148 22.2168 398.391 21.9219 397.836 21.332C397.281 20.7422 397.004 19.9336 397.004 18.9062C397.004 17.2773 397.539 15.9043 398.609 14.7871C399.68 13.6699 400.994 13.1113 402.553 13.1113C402.936 13.1113 403.328 13.1367 403.73 13.1875C404.137 13.2344 404.555 13.3066 404.984 13.4043L404.639 15.1328H403.906L403.93 15.0156C403.996 14.6523 404.029 14.4355 404.029 14.3652C404.029 14.1152 403.881 13.9102 403.584 13.75C403.287 13.5859 402.908 13.5039 402.447 13.5039C401.318 13.5039 400.346 14.0371 399.529 15.1035C398.713 16.166 398.305 17.4336 398.305 18.9062C398.305 19.7227 398.527 20.3672 398.973 20.8398C399.422 21.3125 400.031 21.5488 400.801 21.5488C401.484 21.5488 402.4 21.3555 403.549 20.9688L403.443 21.4727ZM404.527 22L404.598 21.6367L404.709 21.6309C405.197 21.5996 405.492 21.5332 405.594 21.4316C405.699 21.3301 405.807 21.0137 405.916 20.4824L407.035 14.8457C407.098 14.5215 407.129 14.2422 407.129 14.0078C407.129 13.8828 407.092 13.8066 407.018 13.7793C406.947 13.752 406.705 13.7246 406.291 13.6973L406.18 13.6855L406.256 13.3281H408.945L410.293 13.3105H410.516C411.629 13.3105 412.463 13.5645 413.018 14.0723C413.576 14.5762 413.855 15.334 413.855 16.3457C413.855 17.9824 413.359 19.334 412.367 20.4004C411.375 21.4668 410.117 22 408.594 22H404.527ZM408.488 13.7207L407.141 20.4824C407.066 20.9043 407.033 21.1328 407.041 21.168C407.096 21.4609 407.443 21.6074 408.084 21.6074C409.42 21.6074 410.5 21.123 411.324 20.1543C412.152 19.1855 412.566 17.9199 412.566 16.3574C412.566 15.3809 412.312 14.6973 411.805 14.3066C411.301 13.916 410.414 13.7207 409.145 13.7207H408.488ZM416.926 17.793L416.387 20.4824C416.336 20.7441 416.311 20.9961 416.311 21.2383C416.311 21.3906 416.342 21.4902 416.404 21.5371C416.467 21.5801 416.609 21.6016 416.832 21.6016L417.277 21.6309L417.389 21.6367L417.318 22H413.773L413.844 21.6367L413.955 21.6309C414.443 21.5996 414.738 21.5332 414.84 21.4316C414.945 21.3301 415.053 21.0137 415.162 20.4824L416.281 14.8457C416.344 14.5215 416.375 14.2422 416.375 14.0078C416.375 13.8828 416.338 13.8066 416.264 13.7793C416.193 13.752 415.951 13.7246 415.537 13.6973L415.426 13.6855L415.502 13.3281H421.426L421.127 14.8457H420.471L420.488 14.7344L420.605 14.084C420.605 13.8926 420.275 13.7969 419.615 13.7969H417.717L417.02 17.3242H418.607C418.947 17.3242 419.162 17.3066 419.252 17.2715C419.346 17.2324 419.41 17.1348 419.445 16.9785C419.453 16.9512 419.477 16.8613 419.516 16.709L419.545 16.6035H420.014L419.633 18.5195H419.164L419.182 18.4082C419.205 18.2246 419.217 18.0957 419.217 18.0215C419.217 17.8691 418.982 17.793 418.514 17.793H416.926Z" fill="black"/>
<rect x="123" y="26" width="100" height="100" fill="#733148"/>
<rect x="339" y="26" width="100" height="100" fill="#E5DCDF"/>
<rect x="231" y="26" width="100" height="100" fill="#785964"/>
</svg>
