<svg width="50" height="50" viewBox="0 0 50 50" fill="none" xmlns="http://www.w3.org/2000/svg">
<g clip-path="url(#clip0_7_22)">
<path d="M42.0926 44.0893L35.3208 38.6073L27.0571 38.5499C24.1714 38.5299 21.847 36.6482 21.8654 34.3471L21.9221 27.2821C21.9405 24.981 24.2949 23.1318 27.1806 23.1519L42.8561 23.2607C45.7418 23.2808 48.0662 25.1625 48.0478 27.4636L47.9911 34.5286C47.9727 36.8297 45.6183 38.6788 42.7326 38.6588L42.1362 38.6547L42.0926 44.0893Z" fill="#733148"/>
<path d="M42.8644 22.2191L42.9396 12.8444C42.958 10.5433 40.6336 8.66163 37.7479 8.64158L6.397 8.42381C3.51124 8.40376 1.1569 10.2529 1.13845 12.554L1.0077 28.8579C0.989241 31.159 3.31366 33.0407 6.19943 33.0607L10.2887 33.0891L10.2189 41.7845L21.1933 33.1649L21.8749 33.1696M35.3208 38.6073L42.0926 44.0893L42.1362 38.6547L42.7326 38.6588C45.6183 38.6788 47.9727 36.8297 47.9911 34.5286L48.0478 27.4636C48.0662 25.1625 45.7418 23.2808 42.8561 23.2607L27.1806 23.1519C24.2949 23.1318 21.9405 24.981 21.9221 27.2821L21.8654 34.3471C21.847 36.6482 24.1714 38.5299 27.0571 38.5499L35.3208 38.6073Z" stroke="#733148" stroke-width="2" stroke-linecap="round" stroke-linejoin="round"/>
</g>
<defs>
<clipPath id="clip0_7_22">
<rect width="50" height="50" fill="white"/>
</clipPath>
</defs>
</svg>
